:SAMPLES-PER-SECOND 30
:FRAME-RANGE 1-2091
:FULLY-SPECIFIED
:DEGREES
719
root  -47.8109 39.232 -96.7581 4.62616 12.5081 1.97932
RightUpLeg  -22.8526 -9.59735 3.92593
RightLeg  5.37027 -15.4896 3.24795
RightFoot  -2.07511 -1.22511 14.8644
RightToes  5.82063e-011 0 -3.6325e-017
Spine  8.02978 -0.924204 -5.49265
Spine1  -2.16729 -1.02691 0.85162
HEad  10.8807 27.8723 -4.91016
LeftShoulder1  1.12905 -0.170478 -24.4975
LeftArm  40.8327 -1.85898 -17.031
LeftForeArm  11.5295 -23.5171 -4.4636
LeftHand  -0.263631 -2.22132 4.21881
RightShoulder  4.52513 4.67668 48.4909
RightArm  30.2641 -5.3425 14.4528
RightForeArm  8.22834 12.725 13.0565
RightHand  0.438089 3.95725 5.167
LeftUpLeg  -0.997893 9.8148 -0.465483
LeftLeg  9.11296 11.9733 -3.32768
LeftFoot  -15.7553 -0.231682 -8.44578
LeftToes  -6.27584e-011 -2.25241e-010 2.80627e-011
720
root  -47.3413 38.9785 -95.8229 5.01817 11.0907 2.87524
RightUpLeg  -20.2621 -2.13334 1
RightLeg  -3.91544 -26.8287 8.46779
RightFoot  -2.81232 -1.05415 13.8161
RightToes  5.82063e-011 0 -3.6325e-017
Spine  7.15644 -1.15324 -6.04712
Spine1  -1.9147 -1.1341 0.724711
HEad  10.2048 27.628 -5.05032
LeftShoulder1  1.14647 -0.14223 -25.2451
LeftArm  29.9916 -5.08727 -18.9994
LeftForeArm  15.5499 -19.0329 -7.67135
LeftHand  -0.266062 -2.09036 4.32037
RightShoulder  4.43286 4.51337 48.4714
RightArm  28.9048 -5.40714 14.2312
RightForeArm  9.23428 11.7256 13.6709
RightHand  0.423656 3.9336 5.00259
LeftUpLeg  0.270661 9.47491 -1.90827
LeftLeg  9.68832 13.5609 -2.85755
LeftFoot  -17.4968 -0.371594 -8.84441
LeftToes  -6.27584e-011 -2.25241e-010 2.80627e-011
721
root  -46.8532 38.6754 -94.8038 5.13902 9.69411 3.72369
RightUpLeg  -19.4768 -1.07407 1.41613
RightLeg  -6.05853 -28.5251 8.93557
RightFoot  -3.88212 -0.969053 14.3877
RightToes  5.82063e-011 0 -3.6325e-017
Spine  6.2366 -1.33812 -6.42892
Spine1  -1.33089 -1.27111 0.717899
HEad  9.17002 27.6631 -5.70831
LeftShoulder1  1.21093 -0.262688 -25.9809
LeftArm  13.3583 -8.77945 -20.5157
LeftForeArm  24.7572 -14.2864 -11.1172
LeftHand  -0.255371 -2.03137 4.18239
RightShoulder  4.5664 4.751 48.4917
RightArm  25.7764 -5.21084 13.8374
RightForeArm  12.0265 9.48259 14.8022
RightHand  0.411025 3.90024 4.86552
LeftUpLeg  1.80031 9.57323 -3.0423
LeftLeg  10.7608 14.2303 -2.74734
LeftFoot  -19.7901 -0.585184 -9.50874
LeftToes  -6.27584e-011 -2.25241e-010 2.80627e-011
722
root  -46.3378 38.4882 -93.7418 4.76834 8.34926 3.53123
RightUpLeg  -18.0365 -0.0386211 2.72089
RightLeg  -5.44093 -27.0458 8.15295
RightFoot  -2.52044 -0.945684 11.9963
RightToes  5.82063e-011 0 -3.6325e-017
Spine  6.11626 -1.46618 -5.15769
Spine1  -0.783066 -1.57635 0.868856
HEad  8.52668 27.772 -6.43326
LeftShoulder1  1.28783 -0.445674 -26.4578
LeftArm  0.509734 -12.1296 -22.057
LeftForeArm  31.7149 -11.0332 -12.3512
LeftHand  -0.261017 -1.70807 4.43934
RightShoulder  4.7547 5.10348 48.4197
RightArm  21.2546 -4.68293 13.4556
RightForeArm  16.3843 5.98687 16.0676
RightHand  0.416859 3.91591 4.92879
LeftUpLeg  4.23886 9.85625 -3.04103
LeftLeg  10.73 14.7032 -2.94138
LeftFoot  -21.3969 -0.757839 -10.0494
LeftToes  -6.27584e-011 -2.25241e-010 2.80627e-011
723
root  -45.8333 38.5354 -92.6624 4.16028 7.41711 1.91559
RightUpLeg  -17.1462 1.01212 5.18096
RightLeg  -4.198 -26.6098 7.51811
RightFoot  0.0431252 0.140811 -1.40886
RightToes  5.82063e-011 0 -3.6325e-017
Spine  6.4244 -1.6197 -2.05233
Spine1  -0.0155468 -2.13641 1.75319
HEad  7.78954 28.0834 -7.686
LeftShoulder1  1.32844 -0.561286 -26.5333
LeftArm  -7.69998 -15.3058 -24.1713
LeftForeArm  35.0213 -9.64494 -12.344
LeftHand  -0.309142 -1.51122 5.36207
RightShoulder  4.88733 5.38189 48.2069
RightArm  17.6997 -4.15742 12.8966
RightForeArm  19.4556 2.94503 16.7934
RightHand  0.428785 3.79695 5.15154
LeftUpLeg  7.3526 10.086 -1.58613
LeftLeg  9.00547 15.2418 -3.34169
LeftFoot  -21.0985 -0.717466 -9.86614
LeftToes  -6.27584e-011 -2.25241e-010 2.80627e-011
724
root  -45.3441 38.51 -91.49 3.43082 6.46645 0.0417328
RightUpLeg  -19.0617 3.02237 7.44642
RightLeg  4.18308 -27.4651 2.69629
RightFoot  1.18597 0.965294 -8.69604
RightToes  5.82063e-011 0 -3.6325e-017
Spine  7.04948 -1.75491 1.01177
Spine1  0.118991 -2.44414 2.67491
HEad  6.95967 28.2124 -9.41187
LeftShoulder1  1.36751 -0.655539 -26.7401
LeftArm  -13.9705 -19.1992 -25.8578
LeftForeArm  36.5764 -8.91954 -12.0771
LeftHand  -0.319125 -1.58605 5.47721
RightShoulder  5.11401 5.75281 48.42
RightArm  13.8602 -3.4699 11.8515
RightForeArm  21.82 -0.0203662 17.1484
RightHand  0.436368 3.75635 5.27336
LeftUpLeg  8.71423 15.1009 1.0866
LeftLeg  12.1236 10.9998 -2.21036
LeftFoot  -20.8326 -0.766712 -10.7121
LeftToes  -6.27584e-011 -2.25241e-010 2.80627e-011
725
root  -44.921 38.4523 -90.3397 3.11914 5.18083 -0.943817
RightUpLeg  -19.8579 -0.0718789 9.56571
RightLeg  10.7649 -22.7661 -0.507915
RightFoot  -0.810966 0.774275 -8.43808
RightToes  5.82063e-011 0 -3.6325e-017
Spine  7.52925 -1.8933 2.76076
Spine1  -0.0986731 -2.55186 3.41877
HEad  6.01926 28.4627 -10.7583
LeftShoulder1  1.37986 -0.760284 -26.2048
LeftArm  -18.2039 -23.1038 -27.2332
LeftForeArm  36.0714 -8.77822 -11.7616
LeftHand  -0.306255 -1.64185 5.22506
RightShoulder  5.67764 6.64621 49.0206
RightArm  9.40033 -2.50094 10.956
RightForeArm  23.8024 -3.79373 17.1454
RightHand  0.416043 3.60531 5.11149
LeftUpLeg  7.60512 27.1816 4.19183
LeftLeg  20.3601 -0.518989 0.12187
LeftFoot  -19.5952 -0.953443 -14.7662
LeftToes  -6.27584e-011 -2.25241e-010 2.80627e-011
726
root  -44.6131 38.407 -89.2486 2.63275 4.52998 -1.28508
RightUpLeg  -19.4461 -2.78312 10.349
RightLeg  14.7781 -19.6261 -1.53578
RightFoot  -3.4254 0.576636 -8.64402
RightToes  5.82063e-011 0 -3.6325e-017
Spine  7.59738 -2.10279 3.19978
Spine1  0.537922 -2.93282 4.75348
HEad  5.54312 28.256 -10.9415
LeftShoulder1  1.43319 -1.09014 -24.998
LeftArm  -20.9242 -27.4783 -27.8426
LeftForeArm  34.8368 -8.45585 -11.7109
LeftHand  -0.284967 -1.55527 4.9262
RightShoulder  6.33462 7.75126 49.3166
RightArm  4.77538 -1.96587 10.9907
RightForeArm  25.6454 -6.05865 16.6025
RightHand  0.389458 3.24297 4.9974
LeftUpLeg  3.84728 24.1083 4.66455
LeftLeg  31.0449 1.22848 1.14903
LeftFoot  -14.3396 -0.493565 -21.8771
LeftToes  -6.27584e-011 -2.25241e-010 2.80627e-011
727
root  -44.339 38.2661 -88.2046 2.30475 4.2231 -2.04288
RightUpLeg  -19.1259 -3.3921 10.8686
RightLeg  18.5305 -18.6786 -2.42978
RightFoot  -6.52011 0.283844 -7.76937
RightToes  5.82063e-011 0 -3.6325e-017
Spine  7.21171 -2.28856 4.86872
Spine1  1.22183 -2.9501 5.31022
HEad  6.35798 27.4775 -9.89213
LeftShoulder1  1.45224 -1.33018 -23.7901
LeftArm  -23.2668 -33.0714 -27.7742
LeftForeArm  33.4679 -7.65424 -11.9274
LeftHand  -0.266498 -1.31819 4.75955
RightShoulder  6.58752 8.21158 49.268
RightArm  3.88553 -2.14247 11.7536
RightForeArm  24.9335 -6.2857 16.4833
RightHand  0.403447 2.9551 5.38719
LeftUpLeg  -1.63981 20.2318 5.43793
LeftLeg  42.7672 1.00347 1.38616
LeftFoot  -4.70736 1.32491 -22.13
LeftToes  -6.27584e-011 -2.25241e-010 2.80627e-011
728
root  -44.0745 38.1022 -87.1878 1.75047 3.20476 -3.22885
RightUpLeg  -18.0978 -3.34915 11.6817
RightLeg  21.3825 -17.8982 -2.82056
RightFoot  -9.24132 0.0564499 -6.47151
RightToes  5.82063e-011 0 -3.6325e-017
Spine  7.66434 -2.30414 7.63265
Spine1  0.908438 -2.34559 4.77269
HEad  7.5564 27.3787 -8.90904
LeftShoulder1  1.4148 -1.42461 -22.3822
LeftArm  -25.8876 -38.134 -27.5561
LeftForeArm  32.7038 -7.29403 -11.8646
LeftHand  -0.236633 -1.06842 4.38254
RightShoulder  6.64238 8.18565 49.7867
RightArm  6.73404 -1.60868 12.4543
RightForeArm  23.6216 -5.72859 16.919
RightHand  0.462175 3.20097 6.00539
LeftUpLeg  -6.9115 17.1403 6.68891
LeftLeg  52.7851 -0.808938 -0.68441
LeftFoot  7.76282 2.2512 -13.6083
LeftToes  -6.27584e-011 -2.25241e-010 2.80627e-011
729
root  -43.8196 38.0736 -86.0914 1.15964 1.61726 -3.53952
RightUpLeg  -16.0981 -2.5457 11.7285
RightLeg  22.8215 -17.2371 -3.20072
RightFoot  -11.4039 -0.0800295 -5.59792
RightToes  5.82063e-011 0 -3.6325e-017
Spine  7.7632 -2.13482 8.29225
Spine1  1.00619 -1.92864 5.26889
HEad  7.74616 28.8209 -9.02825
LeftShoulder1  1.36339 -1.48512 -20.9175
LeftArm  -27.2272 -41.3575 -26.8846
LeftForeArm  31.0345 -8.58224 -11.3803
LeftHand  -0.223767 -0.901731 4.24503
RightShoulder  7.315 9.30884 50.0146
RightArm  10.3841 -1.58284 13.232
RightForeArm  22.8119 -4.06964 17.2754
RightHand  0.477286 3.44635 6.01786
LeftUpLeg  -10.7489 14.6153 7.42493
LeftLeg  59.7024 -1.52066 -2.27525
LeftFoot  7.96547 2.07763 -12.462
LeftToes  -6.27584e-011 -2.25241e-010 2.80627e-011
730
root  -43.5746 38.2389 -84.9161 0.713272 0.19165 -2.79092
RightUpLeg  -13.3384 -2.10702 10.682
RightLeg  22.6485 -16.4951 -3.24301
RightFoot  -12.9554 -0.147647 -4.26664
RightToes  5.82063e-011 0 -3.6325e-017
Spine  7.73043 -2.06918 7.43479
Spine1  0.572355 -1.86424 5.74765
HEad  8.08074 31.2364 -9.09555
LeftShoulder1  1.30009 -1.42865 -19.8795
LeftArm  -26.4228 -43.3432 -25.2348
LeftForeArm  28.2796 -10.5991 -10.8122
LeftHand  -0.223462 -0.724771 4.34573
RightShoulder  7.99996 10.3775 50.4767
RightArm  15.5787 -0.78617 14.1041
RightForeArm  21.1673 -1.59504 17.6306
RightHand  0.452344 3.73003 5.49329
LeftUpLeg  -14.2237 11.8754 7.04884
LeftLeg  62.9539 -1.37068 -2.324
LeftFoot  5.93017 1.66024 -11.1431
LeftToes  -6.27584e-011 -2.25241e-010 2.80627e-011
731
root  -43.3198 38.4337 -83.7107 0.457047 -1.63943 -1.85835
RightUpLeg  -10.4112 -2.47116 9.27453
RightLeg  21.5878 -14.5005 -2.46311
RightFoot  -14.0424 -0.180722 -3.63959
RightToes  5.82063e-011 0 -3.6325e-017
Spine  7.4471 -1.7576 6.78671
Spine1  0.0988692 -1.52362 5.61468
HEad  8.49432 34.0439 -9.2787
LeftShoulder1  1.20758 -1.24606 -18.8743
LeftArm  -23.6983 -44.5633 -23.9646
LeftForeArm  24.6337 -13.2425 -9.81874
LeftHand  -0.211477 -0.601457 4.18997
RightShoulder  8.3935 10.9911 50.7115
RightArm  19.2266 0.282061 15.2403
RightForeArm  19.3932 1.13761 17.4775
RightHand  0.501669 3.81391 6.05727
LeftUpLeg  -17.3751 10.0632 6.60337
LeftLeg  63.1656 -0.473914 -0.414476
LeftFoot  4.23118 1.21742 -9.07836
LeftToes  -6.27584e-011 -2.25241e-010 2.80627e-011
